<?xml version="1.0" encoding="UTF-8" standalone="no"?>
<svg
   width="100"
   height="100"
   viewBox="0 0 100 100"
   version="1.1"
   id="svg4"
   sodipodi:docname="pmos-logo.svg"
   inkscape:version="1.4 (86a8ad7, 2024-10-11)"
   xmlns:inkscape="http://www.inkscape.org/namespaces/inkscape"
   xmlns:sodipodi="http://sodipodi.sourceforge.net/DTD/sodipodi-0.dtd"
   xmlns="http://www.w3.org/2000/svg"
   xmlns:svg="http://www.w3.org/2000/svg">
  <defs
     id="defs4">
    <linearGradient
       id="SVGID_1_"
       gradientUnits="userSpaceOnUse"
       x1="10.3738"
       y1="-3.5242"
       x2="19.261"
       y2="-16.855"
       gradientTransform="matrix(1,0,0,-1,0,3.2756)">
		<stop
   offset="0"
   style="stop-color:#FF00FF"
   id="stop1" />

		<stop
   offset="0.2176"
   style="stop-color:#D522F9"
   id="stop2" />

		<stop
   offset="0.7046"
   style="stop-color:#6C76EB"
   id="stop3" />

		<stop
   offset="1"
   style="stop-color:#29ABE2"
   id="stop4" />

	</linearGradient>
    <linearGradient
       id="SVGID_2_"
       gradientUnits="userSpaceOnUse"
       x1="2.4532001"
       y1="-20.399401"
       x2="30.064501"
       y2="-3.8756001"
       gradientTransform="matrix(1,0,0,-1,0,3.2756)">
		<stop
   offset="0"
   style="stop-color:#2E3192"
   id="stop5" />

		<stop
   offset="0.2245"
   style="stop-color:#3B3092"
   id="stop6" />

		<stop
   offset="1"
   style="stop-color:#662D91"
   id="stop7" />

	</linearGradient>
  </defs>
  <sodipodi:namedview
     id="namedview4"
     pagecolor="#ffffff"
     bordercolor="#000000"
     borderopacity="0.25"
     inkscape:showpageshadow="2"
     inkscape:pageopacity="0.0"
     inkscape:pagecheckerboard="0"
     inkscape:deskcolor="#d1d1d1"
     inkscape:zoom="8.15"
     inkscape:cx="50"
     inkscape:cy="50"
     inkscape:window-width="1920"
     inkscape:window-height="1017"
     inkscape:window-x="-8"
     inkscape:window-y="-8"
     inkscape:window-maximized="1"
     inkscape:current-layer="svg4" />
  <g
     id="g11"
     transform="matrix(3.201998,0,0,3.3194933,-1.5390868,-2.2151811)">
	
		<linearGradient
   id="linearGradient11"
   gradientUnits="userSpaceOnUse"
   x1="10.3738"
   y1="-3.5242"
   x2="19.261"
   y2="-16.855"
   gradientTransform="matrix(1,0,0,-1,0,3.2756)">
		<stop
   offset="0"
   style="stop-color:#FF00FF"
   id="stop8" />

		<stop
   offset="0.2176"
   style="stop-color:#D522F9"
   id="stop9" />

		<stop
   offset="0.7046"
   style="stop-color:#6C76EB"
   id="stop10" />

		<stop
   offset="1"
   style="stop-color:#29ABE2"
   id="stop11" />

	</linearGradient>

	<path
   class="st0"
   d="m 28.1,14.9 c -0.9,0.9 -2,1.7 -3.2,2.5 -0.9,4.4 -4.5,7.6 -8.7,7.6 -1.7,0 -3.4,-0.5 -4.8,-1.6 -1.4,0.4 -2.7,0.6 -4,0.7 -0.5,0 -1,0.1 -1.4,0.1 -2.5,0 -4.1,-0.7 -4.6,-2 C 0.6,20 2.9,16.8 7.6,13.6 8.4,9.2 12,6 16.2,6 c 1.7,0 3.4,0.6 4.8,1.6 0,0 0,0 0.1,0 2.5,-0.6 4.7,-0.8 6.4,-0.7 1.3,0.1 3,0.6 3.5,2 0.7,1.5 -0.4,3.6 -2.9,6 z"
   id="path4"
   style="fill:url(#SVGID_1_)" />

	<path
   class="st1"
   d="m 27.8,14.9 c -0.9,0.9 -2,1.7 -3.2,2.5 -0.8,4.4 -4.4,7.6 -8.6,7.6 -1.7,0 -3.4,-0.5 -4.8,-1.6 -1.4,0.4 -2.7,0.6 -3.9,0.7 -0.5,0 -1,0.1 -1.4,0.1 -2.5,0 -4.1,-0.7 -4.6,-2 C 0.5,20 2.8,16.8 7.5,13.6 8.2,9.3 11.8,6 16,6 c 1.7,0 3.4,0.6 4.8,1.6 0,0 0,0 0.1,0 2.5,-0.6 4.7,-0.8 6.4,-0.7 1.3,0.1 3,0.6 3.5,2 0.6,1.5 -0.4,3.6 -3,6 z"
   id="path5"
   style="fill:none;stroke:#ffffff;stroke-width:0.75;stroke-miterlimit:10" />

	
		<linearGradient
   id="linearGradient14"
   gradientUnits="userSpaceOnUse"
   x1="2.4532001"
   y1="-20.399401"
   x2="30.064501"
   y2="-3.8756001"
   gradientTransform="matrix(1,0,0,-1,0,3.2756)">
		<stop
   offset="0"
   style="stop-color:#2E3192"
   id="stop12" />

		<stop
   offset="0.2245"
   style="stop-color:#3B3092"
   id="stop13" />

		<stop
   offset="1"
   style="stop-color:#662D91"
   id="stop14" />

	</linearGradient>

	<path
   class="st2"
   d="M 27.2,14.1 C 24.9,16.2 21.5,18.3 17.7,20 13.9,21.7 10.1,22.8 7.1,23.1 4.3,23.3 2.4,22.9 2,21.8 1.6,20.5 3,18 7.2,15 c 0,0.2 0,0.4 0,0.5 0,0.2 0,0.4 0,0.6 -1.8,1.4 -3.8,3.3 -3.2,4.7 0.2,0.5 0.7,0.9 1.5,1.1 H 5.6 C 5.8,21.9 6,21.7 6.1,21.5 6.2,21.3 6,21 5.7,20.9 5.3,20.8 5,20.6 4.9,20.4 4.8,20.1 5,19.7 5.4,19.1 c 0.4,-0.6 1.1,-1.2 1.9,-1.9 0.1,0.6 0.3,1.2 0.5,1.8 0,0 0,0.1 0.1,0.1 0.2,0.3 0.5,0.5 1.1,0.5 0.5,0 1.2,-0.1 2.1,-0.4 1.6,-0.4 3.6,-1.2 5.6,-2.1 2.1,-0.9 4,-1.9 5.3,-2.8 1.4,-0.9 2,-1.5 2.1,-2.1 0,-0.1 0,-0.3 0,-0.4 -0.2,-0.6 -0.5,-1.2 -0.9,-1.8 1,-0.2 1.9,-0.2 2.6,-0.2 0.7,0.1 1.1,0.3 1.2,0.5 0.1,0.3 -0.1,0.9 -0.9,1.8 -0.2,0.2 -0.2,0.5 0,0.7 0.1,0.1 0.2,0.1 0.3,0.1 0.1,0 0.2,-0.1 0.3,-0.1 1.1,-1.1 1.5,-2.1 1.1,-2.9 C 27.2,8.4 24.6,8.6 22.4,9 22.2,8.7 21.9,8.4 21.6,8.2 c 4.3,-1 7.5,-0.6 8.1,0.8 0.6,1.3 -0.4,3.1 -2.5,5.1 z"
   id="path7"
   style="fill:url(#SVGID_2_);stroke:#ffffff;stroke-width:0.5;stroke-miterlimit:10" />

	<path
   class="st3"
   d="m 21.5,15.8 c -1.4,0.8 -2.9,1.6 -4.5,2.3 -3.5,1.6 -6.9,2.6 -9.3,2.8 -0.3,0 -0.5,0.3 -0.4,0.6 0,0.3 0.2,0.5 0.5,0.5 v 0 c 2.5,-0.2 6.1,-1.3 9.6,-2.9 1.6,-0.7 3.1,-1.5 4.5,-2.4 0.2,-0.1 0.3,-0.5 0.2,-0.7 -0.1,-0.2 -0.4,-0.3 -0.6,-0.2 z"
   id="path8"
   style="fill:none;stroke:#ffffff;stroke-width:0.5;stroke-miterlimit:10" />

	<path
   class="st3"
   d="m 24.5,13.8 c -0.3,0.2 -0.6,0.5 -1,0.7 -0.2,0.2 -0.3,0.5 -0.1,0.7 0.1,0.2 0.2,0.2 0.4,0.2 0.1,0 0.2,0 0.3,-0.1 0.4,-0.2 0.7,-0.5 1,-0.8 0.2,-0.2 0.3,-0.5 0.1,-0.7 -0.2,-0.1 -0.5,-0.2 -0.7,0 z"
   id="path9"
   style="fill:none;stroke:#ffffff;stroke-width:0.5;stroke-miterlimit:10" />

	<path
   class="st3"
   d="m 13.9,9.7 c 0.1,0 0.1,0 0.2,0 0.3,-0.1 0.6,-0.2 1,-0.3 0.3,-0.1 0.4,-0.3 0.4,-0.6 0,-0.3 -0.3,-0.5 -0.6,-0.4 -0.4,0.1 -0.8,0.2 -1.1,0.3 -0.2,0.1 -0.4,0.4 -0.3,0.7 0,0.1 0.2,0.3 0.4,0.3 z"
   id="path10"
   style="fill:none;stroke:#ffffff;stroke-width:0.5;stroke-miterlimit:10" />

	<path
   class="st3"
   d="m 17,9.4 c 1.3,0.2 2.5,0.9 3.3,2 0.1,0.1 0.2,0.2 0.4,0.2 0.1,0 0.2,0 0.3,-0.1 0.2,-0.2 0.2,-0.5 0,-0.7 -1,-1.2 -2.4,-2.1 -3.9,-2.4 -0.3,-0.1 -0.5,0.1 -0.6,0.4 0,0.3 0.2,0.5 0.5,0.6 z"
   id="path11"
   style="fill:none;stroke:#ffffff;stroke-width:0.5;stroke-miterlimit:10" />

</g>
</svg>
